<svg width="64" height="64" viewBox="0 0 36 36" fill="none" xmlns="http://www.w3.org/2000/svg">
  <circle cx="18" cy="18" r="18" fill="#FB923C" />
  <path d="M22.5 11.8C21.6 10.7 20.2 10 18.5 10C16.5 10 15 11 15 12.6C15 14 16.2 14.8 18.5 15.3C21.9 16 24 17.2 24 20.2C24 23.6 21.1 26 17 26C13.9 26 11.5 24.9 10 22.9L12.4 21.2C13.4 22.5 15 23.4 17.1 23.4C19.3 23.4 20.8 22.3 20.8 20.6C20.8 19.1 19.7 18.4 16.9 17.8C13.6 17.1 11.8 15.9 11.8 13C11.8 9.8 14.5 7.6 18.4 7.6C21.2 7.6 23.5 8.6 24.9 10.4L22.5 11.8Z" fill="white" />
</svg>
