<svg width="82" height="62" viewBox="0 0 82 62" fill="none" xmlns="http://www.w3.org/2000/svg">
  <path d="M25 36C25 30.477 29.477 26 35 26H47C52.523 26 57 30.477 57 36V39C57 41.761 54.761 44 52 44H30C27.239 44 25 41.761 25 39V36Z" fill="#FEECE6"/>
  <g stroke="#F27430" stroke-width="3" stroke-linecap="round" stroke-linejoin="round">
    <path d="M22 36C22 28.268 28.268 22 36 22H46C53.732 22 60 28.268 60 36V39C60 43.418 56.418 47 52 47H30C25.582 47 22 43.418 22 39V36Z"/>
    <path d="M27 30L22 24"/>
    <path d="M55 30L60 24"/>
    <path d="M34 33V41"/>
    <path d="M30 37H38"/>
    <circle cx="49" cy="35" r="1.5" fill="#F27430" stroke="none"/>
    <circle cx="54" cy="39" r="1.5" fill="#F27430" stroke="none"/>
  </g>
</svg>
